<mxfile host="app.diagrams.net" agent="Mozilla/5.0 (Macintosh; Intel Mac OS X 10_15_7) AppleWebKit/537.36 (KHTML, like Gecko) Chrome/134.0.0.0 Safari/537.36" version="26.1.1">
  <diagram id="C5RBs43oDa-KdzZeNtuy" name="Page-1">
    <mxGraphModel dx="487" dy="415" grid="1" gridSize="10" guides="1" tooltips="1" connect="1" arrows="1" fold="1" page="1" pageScale="1" pageWidth="827" pageHeight="1169" math="0" shadow="0">
      <root>
        <mxCell id="WIyWlLk6GJQsqaUBKTNV-0" />
        <mxCell id="WIyWlLk6GJQsqaUBKTNV-1" parent="WIyWlLk6GJQsqaUBKTNV-0" />
        <mxCell id="WIyWlLk6GJQsqaUBKTNV-2" value="" style="rounded=0;html=1;jettySize=auto;orthogonalLoop=1;fontSize=11;endArrow=block;endFill=0;endSize=8;strokeWidth=1;shadow=0;labelBackgroundColor=none;edgeStyle=orthogonalEdgeStyle;" parent="WIyWlLk6GJQsqaUBKTNV-1" source="WIyWlLk6GJQsqaUBKTNV-3" target="WIyWlLk6GJQsqaUBKTNV-6" edge="1">
          <mxGeometry relative="1" as="geometry" />
        </mxCell>
        <mxCell id="WIyWlLk6GJQsqaUBKTNV-3" value="Inicio" style="rounded=1;whiteSpace=wrap;html=1;fontSize=12;glass=0;strokeWidth=1;shadow=0;" parent="WIyWlLk6GJQsqaUBKTNV-1" vertex="1">
          <mxGeometry x="160" y="80" width="120" height="40" as="geometry" />
        </mxCell>
        <mxCell id="WIyWlLk6GJQsqaUBKTNV-5" value="No" style="edgeStyle=orthogonalEdgeStyle;rounded=0;html=1;jettySize=auto;orthogonalLoop=1;fontSize=11;endArrow=block;endFill=0;endSize=8;strokeWidth=1;shadow=0;labelBackgroundColor=none;" parent="WIyWlLk6GJQsqaUBKTNV-1" source="WIyWlLk6GJQsqaUBKTNV-6" target="WIyWlLk6GJQsqaUBKTNV-7" edge="1">
          <mxGeometry y="10" relative="1" as="geometry">
            <mxPoint as="offset" />
          </mxGeometry>
        </mxCell>
        <mxCell id="WIyWlLk6GJQsqaUBKTNV-6" value="¿El cliente conoce el producto?" style="rhombus;whiteSpace=wrap;html=1;shadow=0;fontFamily=Helvetica;fontSize=12;align=center;strokeWidth=1;spacing=6;spacingTop=-4;" parent="WIyWlLk6GJQsqaUBKTNV-1" vertex="1">
          <mxGeometry x="170" y="170" width="100" height="80" as="geometry" />
        </mxCell>
        <mxCell id="WIyWlLk6GJQsqaUBKTNV-7" value="Publicidad y difusión" style="rounded=1;whiteSpace=wrap;html=1;fontSize=12;glass=0;strokeWidth=1;shadow=0;" parent="WIyWlLk6GJQsqaUBKTNV-1" vertex="1">
          <mxGeometry x="320" y="190" width="120" height="40" as="geometry" />
        </mxCell>
        <mxCell id="WIyWlLk6GJQsqaUBKTNV-11" value="Evaluación de necesidades" style="rounded=1;whiteSpace=wrap;html=1;fontSize=12;glass=0;strokeWidth=1;shadow=0;" parent="WIyWlLk6GJQsqaUBKTNV-1" vertex="1">
          <mxGeometry x="160" y="320" width="120" height="40" as="geometry" />
        </mxCell>
        <mxCell id="53s4BKC4VpwG-obi9x_5-1" value="" style="rounded=0;html=1;jettySize=auto;orthogonalLoop=1;fontSize=11;endArrow=block;endFill=0;endSize=8;strokeWidth=1;shadow=0;labelBackgroundColor=none;edgeStyle=orthogonalEdgeStyle;exitX=0.5;exitY=1;exitDx=0;exitDy=0;entryX=0.5;entryY=0;entryDx=0;entryDy=0;" edge="1" parent="WIyWlLk6GJQsqaUBKTNV-1" source="WIyWlLk6GJQsqaUBKTNV-6" target="WIyWlLk6GJQsqaUBKTNV-11">
          <mxGeometry relative="1" as="geometry">
            <mxPoint x="219.83" y="260" as="sourcePoint" />
            <mxPoint x="219.83" y="310" as="targetPoint" />
          </mxGeometry>
        </mxCell>
        <mxCell id="53s4BKC4VpwG-obi9x_5-2" value="&lt;span style=&quot;color: rgb(0, 0, 0); font-family: Helvetica; font-size: 11px; font-style: normal; font-variant-ligatures: normal; font-variant-caps: normal; font-weight: 400; letter-spacing: normal; orphans: 2; text-align: center; text-indent: 0px; text-transform: none; widows: 2; word-spacing: 0px; -webkit-text-stroke-width: 0px; white-space: nowrap; background-color: rgb(251, 251, 251); text-decoration-thickness: initial; text-decoration-style: initial; text-decoration-color: initial; float: none; display: inline !important;&quot;&gt;Sí&lt;/span&gt;" style="text;whiteSpace=wrap;html=1;" vertex="1" parent="WIyWlLk6GJQsqaUBKTNV-1">
          <mxGeometry x="220" y="260" width="30" height="30" as="geometry" />
        </mxCell>
        <mxCell id="53s4BKC4VpwG-obi9x_5-4" value="" style="rounded=0;html=1;jettySize=auto;orthogonalLoop=1;fontSize=11;endArrow=block;endFill=0;endSize=8;strokeWidth=1;shadow=0;labelBackgroundColor=none;edgeStyle=orthogonalEdgeStyle;exitX=0.5;exitY=1;exitDx=0;exitDy=0;entryX=0.5;entryY=0;entryDx=0;entryDy=0;" edge="1" parent="WIyWlLk6GJQsqaUBKTNV-1" target="53s4BKC4VpwG-obi9x_5-6">
          <mxGeometry relative="1" as="geometry">
            <mxPoint x="219.44" y="360" as="sourcePoint" />
            <mxPoint x="220" y="400" as="targetPoint" />
          </mxGeometry>
        </mxCell>
        <mxCell id="53s4BKC4VpwG-obi9x_5-6" value="¿El cliente está interesado?" style="rhombus;whiteSpace=wrap;html=1;shadow=0;fontFamily=Helvetica;fontSize=12;align=center;strokeWidth=1;spacing=6;spacingTop=-4;" vertex="1" parent="WIyWlLk6GJQsqaUBKTNV-1">
          <mxGeometry x="160" y="390" width="120" height="90" as="geometry" />
        </mxCell>
        <mxCell id="53s4BKC4VpwG-obi9x_5-7" value="Fin" style="strokeWidth=1;html=1;shape=mxgraph.flowchart.start_1;whiteSpace=wrap;" vertex="1" parent="WIyWlLk6GJQsqaUBKTNV-1">
          <mxGeometry x="180" y="1120" width="100" height="60" as="geometry" />
        </mxCell>
        <mxCell id="53s4BKC4VpwG-obi9x_5-9" value="Evaluación personalizada (grado de discapacidad, entorno, necesidades específicas)" style="rounded=1;whiteSpace=wrap;html=1;fontSize=11;glass=0;strokeWidth=1;shadow=0;" vertex="1" parent="WIyWlLk6GJQsqaUBKTNV-1">
          <mxGeometry x="140" y="520" width="160" height="70" as="geometry" />
        </mxCell>
        <mxCell id="53s4BKC4VpwG-obi9x_5-10" value="" style="rounded=0;html=1;jettySize=auto;orthogonalLoop=1;fontSize=11;endArrow=block;endFill=0;endSize=8;strokeWidth=1;shadow=0;labelBackgroundColor=none;edgeStyle=orthogonalEdgeStyle;entryX=0.5;entryY=0;entryDx=0;entryDy=0;exitX=0.5;exitY=1;exitDx=0;exitDy=0;" edge="1" parent="WIyWlLk6GJQsqaUBKTNV-1" source="53s4BKC4VpwG-obi9x_5-6" target="53s4BKC4VpwG-obi9x_5-9">
          <mxGeometry relative="1" as="geometry">
            <mxPoint x="220" y="490" as="sourcePoint" />
            <mxPoint x="220" y="520" as="targetPoint" />
          </mxGeometry>
        </mxCell>
        <mxCell id="53s4BKC4VpwG-obi9x_5-11" value="" style="rounded=0;html=1;jettySize=auto;orthogonalLoop=1;fontSize=11;endArrow=block;endFill=0;endSize=8;strokeWidth=1;shadow=0;labelBackgroundColor=none;edgeStyle=orthogonalEdgeStyle;entryX=0.5;entryY=0;entryDx=0;entryDy=0;exitX=0.5;exitY=1;exitDx=0;exitDy=0;" edge="1" parent="WIyWlLk6GJQsqaUBKTNV-1" source="53s4BKC4VpwG-obi9x_5-9" target="53s4BKC4VpwG-obi9x_5-12">
          <mxGeometry relative="1" as="geometry">
            <mxPoint x="220" y="590" as="sourcePoint" />
            <mxPoint x="220" y="630" as="targetPoint" />
          </mxGeometry>
        </mxCell>
        <mxCell id="53s4BKC4VpwG-obi9x_5-12" value="Compra y procesamiento" style="rounded=1;whiteSpace=wrap;html=1;fontSize=11;glass=0;strokeWidth=1;shadow=0;" vertex="1" parent="WIyWlLk6GJQsqaUBKTNV-1">
          <mxGeometry x="145" y="620" width="150" height="40" as="geometry" />
        </mxCell>
        <mxCell id="53s4BKC4VpwG-obi9x_5-14" value="¿Desea adquirir el dispositivo?" style="rhombus;whiteSpace=wrap;html=1;shadow=0;fontFamily=Helvetica;fontSize=12;align=center;strokeWidth=1;spacing=6;spacingTop=-4;" vertex="1" parent="WIyWlLk6GJQsqaUBKTNV-1">
          <mxGeometry x="140" y="690" width="160" height="90" as="geometry" />
        </mxCell>
        <mxCell id="53s4BKC4VpwG-obi9x_5-15" value="" style="rounded=0;html=1;jettySize=auto;orthogonalLoop=1;fontSize=11;endArrow=block;endFill=0;endSize=8;strokeWidth=1;shadow=0;labelBackgroundColor=none;edgeStyle=orthogonalEdgeStyle;entryX=0.5;entryY=0;entryDx=0;entryDy=0;exitX=0.501;exitY=1.068;exitDx=0;exitDy=0;exitPerimeter=0;" edge="1" parent="WIyWlLk6GJQsqaUBKTNV-1" source="53s4BKC4VpwG-obi9x_5-12" target="53s4BKC4VpwG-obi9x_5-14">
          <mxGeometry relative="1" as="geometry">
            <mxPoint x="220" y="670" as="sourcePoint" />
            <mxPoint x="220" y="700" as="targetPoint" />
          </mxGeometry>
        </mxCell>
        <mxCell id="53s4BKC4VpwG-obi9x_5-16" value="&lt;span style=&quot;color: rgb(0, 0, 0); font-family: Helvetica; font-size: 11px; font-style: normal; font-variant-ligatures: normal; font-variant-caps: normal; font-weight: 400; letter-spacing: normal; orphans: 2; text-align: center; text-indent: 0px; text-transform: none; widows: 2; word-spacing: 0px; -webkit-text-stroke-width: 0px; white-space: nowrap; background-color: rgb(251, 251, 251); text-decoration-thickness: initial; text-decoration-style: initial; text-decoration-color: initial; float: none; display: inline !important;&quot;&gt;Sí&lt;/span&gt;" style="text;whiteSpace=wrap;html=1;" vertex="1" parent="WIyWlLk6GJQsqaUBKTNV-1">
          <mxGeometry x="230" y="480" width="30" height="30" as="geometry" />
        </mxCell>
        <mxCell id="53s4BKC4VpwG-obi9x_5-17" value="" style="rounded=0;html=1;jettySize=auto;orthogonalLoop=1;fontSize=11;endArrow=block;endFill=0;endSize=8;strokeWidth=1;shadow=0;labelBackgroundColor=none;edgeStyle=orthogonalEdgeStyle;entryX=0.5;entryY=0;entryDx=0;entryDy=0;exitX=0.5;exitY=1;exitDx=0;exitDy=0;" edge="1" parent="WIyWlLk6GJQsqaUBKTNV-1" source="53s4BKC4VpwG-obi9x_5-14" target="53s4BKC4VpwG-obi9x_5-18">
          <mxGeometry relative="1" as="geometry">
            <mxPoint x="220" y="793" as="sourcePoint" />
            <mxPoint x="220" y="820" as="targetPoint" />
          </mxGeometry>
        </mxCell>
        <mxCell id="53s4BKC4VpwG-obi9x_5-18" value="Compra" style="rounded=1;whiteSpace=wrap;html=1;fontSize=11;glass=0;strokeWidth=1;shadow=0;" vertex="1" parent="WIyWlLk6GJQsqaUBKTNV-1">
          <mxGeometry x="145" y="810" width="150" height="40" as="geometry" />
        </mxCell>
        <mxCell id="53s4BKC4VpwG-obi9x_5-19" value="" style="rounded=0;html=1;jettySize=auto;orthogonalLoop=1;fontSize=11;endArrow=block;endFill=0;endSize=8;strokeWidth=1;shadow=0;labelBackgroundColor=none;edgeStyle=orthogonalEdgeStyle;entryX=0.5;entryY=0;entryDx=0;entryDy=0;exitX=0.5;exitY=1;exitDx=0;exitDy=0;" edge="1" parent="WIyWlLk6GJQsqaUBKTNV-1" source="53s4BKC4VpwG-obi9x_5-18" target="53s4BKC4VpwG-obi9x_5-20">
          <mxGeometry relative="1" as="geometry">
            <mxPoint x="219.91" y="850" as="sourcePoint" />
            <mxPoint x="219.92" y="870" as="targetPoint" />
            <Array as="points" />
          </mxGeometry>
        </mxCell>
        <mxCell id="53s4BKC4VpwG-obi9x_5-20" value="Proceso interno de pedido (validación de pago, preparación del envío)" style="rounded=1;whiteSpace=wrap;html=1;fontSize=11;glass=0;strokeWidth=1;shadow=0;" vertex="1" parent="WIyWlLk6GJQsqaUBKTNV-1">
          <mxGeometry x="142.5" y="880" width="155" height="50" as="geometry" />
        </mxCell>
        <mxCell id="53s4BKC4VpwG-obi9x_5-21" value="&lt;span style=&quot;color: rgb(0, 0, 0); font-family: Helvetica; font-size: 11px; font-style: normal; font-variant-ligatures: normal; font-variant-caps: normal; font-weight: 400; letter-spacing: normal; orphans: 2; text-align: center; text-indent: 0px; text-transform: none; widows: 2; word-spacing: 0px; -webkit-text-stroke-width: 0px; white-space: nowrap; background-color: rgb(251, 251, 251); text-decoration-thickness: initial; text-decoration-style: initial; text-decoration-color: initial; float: none; display: inline !important;&quot;&gt;Sí&lt;/span&gt;" style="text;whiteSpace=wrap;html=1;" vertex="1" parent="WIyWlLk6GJQsqaUBKTNV-1">
          <mxGeometry x="230" y="780" width="20" height="20" as="geometry" />
        </mxCell>
        <mxCell id="53s4BKC4VpwG-obi9x_5-22" value="Envío del dispositivo al cliente" style="rounded=1;whiteSpace=wrap;html=1;fontSize=11;glass=0;strokeWidth=1;shadow=0;" vertex="1" parent="WIyWlLk6GJQsqaUBKTNV-1">
          <mxGeometry x="142.5" y="960" width="147.5" height="40" as="geometry" />
        </mxCell>
        <mxCell id="53s4BKC4VpwG-obi9x_5-23" value="" style="rounded=0;html=1;jettySize=auto;orthogonalLoop=1;fontSize=11;endArrow=block;endFill=0;endSize=8;strokeWidth=1;shadow=0;labelBackgroundColor=none;edgeStyle=orthogonalEdgeStyle;entryX=0.527;entryY=0.045;entryDx=0;entryDy=0;exitX=0.5;exitY=1;exitDx=0;exitDy=0;entryPerimeter=0;" edge="1" parent="WIyWlLk6GJQsqaUBKTNV-1" source="53s4BKC4VpwG-obi9x_5-20" target="53s4BKC4VpwG-obi9x_5-22">
          <mxGeometry relative="1" as="geometry">
            <mxPoint x="220" y="940" as="sourcePoint" />
            <mxPoint x="220" y="970" as="targetPoint" />
            <Array as="points" />
          </mxGeometry>
        </mxCell>
        <mxCell id="53s4BKC4VpwG-obi9x_5-24" value="" style="rounded=0;html=1;jettySize=auto;orthogonalLoop=1;fontSize=11;endArrow=block;endFill=0;endSize=8;strokeWidth=1;shadow=0;labelBackgroundColor=none;edgeStyle=orthogonalEdgeStyle;exitX=0.991;exitY=0.502;exitDx=0;exitDy=0;exitPerimeter=0;entryX=0;entryY=0.5;entryDx=0;entryDy=0;" edge="1" parent="WIyWlLk6GJQsqaUBKTNV-1" source="53s4BKC4VpwG-obi9x_5-14" target="53s4BKC4VpwG-obi9x_5-25">
          <mxGeometry relative="1" as="geometry">
            <mxPoint x="310" y="734.88" as="sourcePoint" />
            <mxPoint x="335.24" y="734.88" as="targetPoint" />
          </mxGeometry>
        </mxCell>
        <mxCell id="53s4BKC4VpwG-obi9x_5-25" value="Seguimiento posterior (ofrecer pruebas gratuitas o descuentos)" style="rounded=1;whiteSpace=wrap;html=1;fontSize=11;glass=0;strokeWidth=1;shadow=0;" vertex="1" parent="WIyWlLk6GJQsqaUBKTNV-1">
          <mxGeometry x="330" y="712.5" width="152" height="45" as="geometry" />
        </mxCell>
        <mxCell id="53s4BKC4VpwG-obi9x_5-26" value="Configuración e instalación" style="rounded=1;whiteSpace=wrap;html=1;fontSize=11;glass=0;strokeWidth=1;shadow=0;" vertex="1" parent="WIyWlLk6GJQsqaUBKTNV-1">
          <mxGeometry x="142.5" y="1030" width="147.5" height="40" as="geometry" />
        </mxCell>
        <mxCell id="53s4BKC4VpwG-obi9x_5-27" value="" style="rounded=0;html=1;jettySize=auto;orthogonalLoop=1;fontSize=11;endArrow=block;endFill=0;endSize=8;strokeWidth=1;shadow=0;labelBackgroundColor=none;edgeStyle=orthogonalEdgeStyle;exitX=0.5;exitY=1;exitDx=0;exitDy=0;entryX=0.498;entryY=-0.045;entryDx=0;entryDy=0;entryPerimeter=0;" edge="1" parent="WIyWlLk6GJQsqaUBKTNV-1" source="53s4BKC4VpwG-obi9x_5-22" target="53s4BKC4VpwG-obi9x_5-26">
          <mxGeometry relative="1" as="geometry">
            <mxPoint x="219.73" y="1010" as="sourcePoint" />
            <mxPoint x="216" y="1040" as="targetPoint" />
            <Array as="points" />
          </mxGeometry>
        </mxCell>
      </root>
    </mxGraphModel>
  </diagram>
</mxfile>
